<?xml version="1.0"?>
<svg xmlns="http://www.w3.org/2000/svg" height="512px" viewBox="-17 -58 557.33529 557" width="512px"><path d="m263.515625 215.355469c39.855469 0 72.285156-32.707031 72.285156-72.90625s-32.421875-72.90625-72.285156-72.90625-72.289063 32.707031-72.289063 72.90625 32.429688 72.90625 72.289063 72.90625zm0-123.3125c27.453125 0 49.785156 22.613281 49.785156 50.40625s-22.332031 50.40625-49.785156 50.40625c-27.449219 0-49.789063-22.609375-49.789063-50.40625 0-27.792969 22.339844-50.40625 49.789063-50.40625zm0 0" fill="#FFFFFF"/><path d="m442.261719 252.964844c-1.851563-3.957032-5.824219-6.492188-10.195313-6.492188h-46.378906c9.785156-12.433594 17.609375-26.289062 23.183594-41.09375 7.457031-19.769531 10.605468-40.910156 9.234375-61.996094-2.621094-38.550781-19.257813-74.800781-46.773438-101.925781-59.882812-58.71875-155.742187-58.71875-215.625 0-27.507812 27.125-44.148437 63.375-46.769531 101.925781-1.375 21.085938 1.777344 42.226563 9.230469 61.996094 5.582031 14.804688 13.398437 28.660156 23.183593 41.09375h-50.910156c-4.375 0-8.351562 2.535156-10.195312 6.492188l-79.1875 169.683594c-1.628906 3.488281-1.367188 7.558593.699218 10.804687 2.066407 3.242187 5.648438 5.210937 9.492188 5.207031h500c3.847656 0 7.425781-1.964844 9.492188-5.207031 2.066406-3.242187 2.328124-7.3125.703124-10.800781zm-310.882813-108.054688c2.253906-33.066406 16.527344-64.164062 40.128906-87.4375 51.121094-50.074218 132.898438-50.074218 184.015626 0 23.601562 23.273438 37.875 54.371094 40.132812 87.4375 1.152344 17.910156-1.539062 35.859375-7.882812 52.644532-6.234376 16.8125-16.472657 32.75-30.429688 47.378906l-93.828125 98.304687-93.828125-98.308593c-13.960938-14.628907-24.195312-30.566407-30.429688-47.378907-6.347656-16.78125-9.03125-34.730469-7.878906-52.640625zm-102.460937 271.25 68.683593-147.1875h63.933594l93.839844 98.328125c2.125 2.222657 5.066406 3.484375 8.140625 3.484375 3.070313 0 6.015625-1.261718 8.136719-3.484375l93.839844-98.328125h59.410156l68.6875 147.1875zm0 0" fill="#FFFFFF"/></svg>
